<?xml version="1.0" standalone="no"?>
<!DOCTYPE svg PUBLIC "-//W3C//DTD SVG 20010904//EN"
 "http://www.w3.org/TR/2001/REC-SVG-20010904/DTD/svg10.dtd">
<svg version="1.0" xmlns="http://www.w3.org/2000/svg"
 width="256.000000pt" height="256.000000pt" viewBox="0 0 256.000000 256.000000"
 preserveAspectRatio="xMidYMid meet">

<g transform="translate(0.000000,256.000000) scale(0.100000,-0.100000)"
fill="#000000" stroke="none">
<path d="M1125 2549 c-300 -41 -568 -176 -766 -387 -422 -448 -473 -1103 -127
-1610 112 -164 314 -337 495 -423 303 -144 651 -164 968 -56 239 83 457 242
610 445 165 220 249 477 249 762 0 220 -38 381 -135 576 -174 349 -509 602
-899 679 -96 19 -305 27 -395 14z m-369 -956 c76 -120 163 -257 194 -304 l55
-86 -3 304 -3 303 46 0 45 0 0 -365 0 -365 -54 0 -53 0 -144 223 c-79 122
-167 260 -196 306 l-53 84 0 -306 0 -307 -45 0 -45 0 0 365 0 365 59 0 58 0
139 -217z m894 177 l0 -40 -140 0 -140 0 0 -120 0 -120 130 0 130 0 0 -40 0
-40 -130 0 -130 0 0 -125 0 -125 150 0 150 0 0 -40 0 -40 -195 0 -195 0 0 365
0 365 185 0 185 0 0 -40z m590 0 l0 -40 -105 0 -105 0 0 -325 0 -325 -45 0
-45 0 0 325 0 325 -105 0 -105 0 0 40 0 40 255 0 255 0 0 -40z m-1904 -605
c38 -38 16 -95 -37 -95 -56 0 -82 73 -37 104 31 22 45 20 74 -9z m442 -267 c5
-7 33 -68 62 -135 l53 -122 56 126 c57 128 75 151 105 140 15 -6 16 -25 14
-169 -3 -160 -3 -163 -25 -166 -23 -3 -23 -2 -23 125 l-1 128 -56 -128 c-37
-83 -62 -127 -71 -125 -7 2 -37 56 -66 121 -55 122 -69 146 -66 112 1 -11 2
-68 1 -127 -1 -101 -2 -108 -21 -108 -19 0 -20 7 -20 163 0 90 3 167 7 170 11
11 40 8 51 -5z m500 0 c8 -11 46 -104 123 -306 8 -21 7 -23 -18 -20 -21 2 -29
12 -42 46 l-15 43 -70 -3 -69 -3 -16 -42 c-12 -34 -20 -43 -38 -43 -13 0 -23
2 -23 5 0 6 89 240 113 298 16 38 36 47 55 25z m204 -119 c3 -129 3 -131 31
-155 36 -30 68 -30 104 0 27 23 27 26 31 155 4 115 6 132 21 129 14 -3 16 -22
16 -140 l0 -137 -29 -30 c-55 -57 -158 -50 -196 12 -17 27 -20 51 -20 165 0
124 1 132 19 132 18 0 20 -10 23 -131z m328 -44 c0 -158 -1 -165 -20 -165 -19
0 -20 7 -20 165 0 158 1 165 20 165 19 0 20 -7 20 -165z"/>
<path d="M1232 778 c-12 -35 -22 -66 -22 -70 0 -5 23 -8 51 -8 45 0 50 2 44
18 -4 9 -16 41 -27 70 -11 28 -21 52 -22 52 -1 0 -12 -28 -24 -62z"/>
</g>
</svg>
